<?xml version="1.0" encoding="iso-8859-1"?>
<!-- Generator: Adobe Illustrator 19.0.0, SVG Export Plug-In . SVG Version: 6.00 Build 0)  -->
<svg version="1.1" id="Capa_1" xmlns="http://www.w3.org/2000/svg" xmlns:xlink="http://www.w3.org/1999/xlink" x="0px" y="0px"
	 viewBox="0 0 512 512" style="enable-background:new 0 0 512 512;" xml:space="preserve">
<path style="fill:#FEDD00;" d="M386.251,74.966L386.251,74.966L386.251,74.966c8.651-27.475-21.48-50.928-45.99-35.796l0,0l0,0
	c-0.739-28.796-36.853-41.194-55.122-18.923l0,0l0,0c-10.048-26.996-48.231-26.996-58.279,0l0,0l0,0
	c-18.269-22.27-54.383-9.872-55.122,18.923l0,0l0,0c-24.51-15.131-54.643,8.321-45.99,35.796l0,0l0,0
	c-28.095-6.353-48.98,25.612-31.876,48.789l0,0l162.128,22.96l162.128-22.96l0,0C435.231,100.578,414.347,68.613,386.251,74.966z"/>
<g>
	<polygon style="fill:#EEECED;" points="174.123,169.684 166.051,158.429 125.252,163.74 125.243,163.74 119.491,169.684 
		115.225,337.87 150.886,512 191.378,512 207.199,329.357 	"/>
	<polygon style="fill:#EEECED;" points="337.876,169.684 345.948,158.429 386.747,163.74 386.756,163.74 392.508,169.684 
		396.774,337.87 361.113,512 320.621,512 304.8,329.357 	"/>
	<polygon style="fill:#EEECED;" points="279.093,149.725 255.999,146.715 232.906,149.725 207.199,329.357 232.906,512 279.093,512 
		304.8,329.357 	"/>
</g>
<g>
	<polygon style="fill:#D4D2D3;" points="345.948,158.429 337.876,169.683 331.475,200.585 393.292,200.585 392.508,169.683 
		386.756,163.74 386.747,163.74 	"/>
	<polygon style="fill:#D4D2D3;" points="225.628,200.585 286.371,200.585 279.093,149.724 255.999,146.714 232.906,149.724 	"/>
	<polygon style="fill:#D4D2D3;" points="125.243,163.74 119.491,169.683 118.707,200.585 180.524,200.585 174.123,169.683 
		166.051,158.429 125.252,163.74 	"/>
</g>
<g>
	<polygon style="fill:#F9545B;" points="232.906,149.725 232.906,512 191.378,512 174.123,169.684 166.051,158.429 	"/>
	<path style="fill:#F9545B;" d="M150.886,512c-18.214,0-33.543-13.66-35.623-31.769L79.564,169.684l45.678-5.943l-5.752,5.943
		L150.886,512z"/>
	<polygon style="fill:#F9545B;" points="279.093,149.725 279.093,512 320.621,512 337.876,169.684 345.948,158.429 	"/>
	<path style="fill:#F9545B;" d="M361.113,512c18.214,0,33.543-13.66,35.623-31.769l35.699-310.547l-45.678-5.943l5.751,5.943
		L361.113,512z"/>
</g>
<path style="fill:#E6BB00;" d="M163.857,133.666c-5.861-15.311-19.65-60.837,7.881-94.496l0,0
	c-24.51-15.131-54.643,8.321-45.99,35.797l0,0c-28.095-6.353-48.98,25.612-31.876,48.789l0,0L163.857,133.666z"/>
<g>
	<path style="fill:#3B484A;" d="M207.199,90.183c-4.267,0-7.726-3.459-7.726-7.726v-8.832c0-4.267,3.459-7.726,7.726-7.726
		s7.726,3.459,7.726,7.726v8.832C214.925,86.723,211.466,90.183,207.199,90.183z"/>
	<path style="fill:#3B484A;" d="M304.8,90.183c-4.267,0-7.726-3.459-7.726-7.726v-8.832c0-4.267,3.459-7.726,7.726-7.726
		c4.267,0,7.726,3.459,7.726,7.726v8.832C312.526,86.723,309.067,90.183,304.8,90.183z"/>
	<path style="fill:#3B484A;" d="M255.999,96.71c-7.997,0-15.511-3.349-20.616-9.189c-2.808-3.213-2.481-8.094,0.732-10.902
		c3.213-2.807,8.094-2.481,10.902,0.732c2.17,2.483,5.443,3.906,8.981,3.906c3.538,0,6.812-1.424,8.982-3.906
		c2.808-3.213,7.689-3.541,10.902-0.731c3.213,2.808,3.541,7.689,0.731,10.902C271.511,93.361,263.997,96.71,255.999,96.71z"/>
</g>
<g>
	<polygon style="fill:#E64047;" points="428.882,200.585 432.434,169.683 386.756,163.74 392.508,169.683 389.674,200.585 	"/>
	<polygon style="fill:#E64047;" points="174.123,169.683 175.68,200.585 232.906,200.585 232.906,149.724 166.051,158.429 	"/>
	<polygon style="fill:#E64047;" points="337.876,169.683 336.318,200.585 279.093,200.585 279.093,149.724 345.948,158.429 	"/>
	<polygon style="fill:#E64047;" points="79.564,169.683 83.116,200.585 122.325,200.585 119.491,169.683 125.243,163.74 	"/>
</g>
<path style="fill:#EEECED;" d="M432.431,123.755H79.567c-12.682,0-22.962,10.28-22.962,22.962l0,0
	c0,12.682,10.28,22.962,22.962,22.962h352.865c12.682,0,22.962-10.28,22.962-22.962l0,0
	C455.394,134.037,445.114,123.755,432.431,123.755z"/>
<g>
</g>
<g>
</g>
<g>
</g>
<g>
</g>
<g>
</g>
<g>
</g>
<g>
</g>
<g>
</g>
<g>
</g>
<g>
</g>
<g>
</g>
<g>
</g>
<g>
</g>
<g>
</g>
<g>
</g>
</svg>
